PathFileType	4	(X/Y/Z)	C:\Users\Biomechanik\SynologyDrive\AlexP\Athlete_03\Athlete_3_25_03_31\Walking_07\marker_experimental.trc
DataRate	CameraRate	NumFrames	NumMarkers	Units	OrigDataRate	OrigDataStartFrame	OrigNumFrames
200.000000	200.000000	4	53	mm	200.000000	56	450
Frame#	Time	GLAB			RFHD			LFHD			C7			T6			SPINMOL			SPINM2			SPINM3			T12			BELTOL			BELT2			BELT3			SACROL			SACR2			SACR3			LTHOL			LTH2			LTH3			LSHAOL			LSHA2			LSHA3			LHEE			LTOE			LM5			RTHOL			RTH2			RTH3			RSHAOL			RSHA2			RSHA3			RHEE			RTOE			RM5			STRN			XIPH			LACR			LUAOL			LUA2			LUA3			LLAOL			LLA2			LLA3			LWRR			LWRU			RACR			RUAOL			RUA2			RUA3			RLAOL			RLA2			RLA3			RWRR			RWRU			
		X1	Y1	Z1	X2	Y2	Z2	X3	Y3	Z3	X4	Y4	Z4	X5	Y5	Z5	X6	Y6	Z6	X7	Y7	Z7	X8	Y8	Z8	X9	Y9	Z9	X10	Y10	Z10	X11	Y11	Z11	X12	Y12	Z12	X13	Y13	Z13	X14	Y14	Z14	X15	Y15	Z15	X16	Y16	Z16	X17	Y17	Z17	X18	Y18	Z18	X19	Y19	Z19	X20	Y20	Z20	X21	Y21	Z21	X22	Y22	Z22	X23	Y23	Z23	X24	Y24	Z24	X25	Y25	Z25	X26	Y26	Z26	X27	Y27	Z27	X28	Y28	Z28	X29	Y29	Z29	X30	Y30	Z30	X31	Y31	Z31	X32	Y32	Z32	X33	Y33	Z33	X34	Y34	Z34	X35	Y35	Z35	X36	Y36	Z36	X37	Y37	Z37	X38	Y38	Z38	X39	Y39	Z39	X40	Y40	Z40	X41	Y41	Z41	X42	Y42	Z42	X43	Y43	Z43	X44	Y44	Z44	X45	Y45	Z45	X46	Y46	Z46	X47	Y47	Z47	X48	Y48	Z48	X49	Y49	Z49	X50	Y50	Z50	X51	Y51	Z51	X52	Y52	Z52	X53	Y53	Z53	

57	0.28	-62.85422134399429	1604.524169921875	288.382568359375	-113.5171661376955	1630.386596679688	352.2408752441406	-105.787811279297	1627.618530273438	214.9333343505859	-290.7262268066408	1445.737548828125	276.8377990722656	-350.7697753906251	1276.453247070312	275.2842712402343	-358.6394958496095	1235.75048828125	254.7664031982421	-362.371795654297	1228.989013671875	304.7133178710937	-353.865447998047	1171.838989257812	271.4463195800781	-329.3286437988282	1105.59326171875	273.4205017089843	-365.3294677734376	1069.7216796875	259.9148254394531	-363.134002685547	1067.679931640625	310.3186950683593	-368.0427856445314	1007.50244140625	281.5668029785156	-349.6211547851564	958.3287963867188	251.5435333251953	-348.5167541503907	954.5443725585938	302.9292907714843	-362.1659545898439	896.6099243164062	273.3275451660156	-181.3311920166016	679.3335571289062	64.23564910888669	-206.2928314208985	610.5791625976562	91.6576766967773	-163.299072265625	622.3084106445312	70.21313476562497	-210.6399536132813	409.8536071777344	57.91387939453121	-285.31982421875	394.1363830566406	80.83417510986322	-246.8121948242188	362.0798645019531	72.78665924072261	-411.8268737792969	267.6652526855469	185.8812561035155	-281.4541015625001	90.1295700073242	175.8115081787109	-335.8682250976562	105.3250427246094	86.13731384277338	-254.8921966552736	685.586669921875	446.3966064453124	-194.7524566650392	633.719970703125	450.3710937499999	-241.7486724853517	626.7803344726562	434.7991638183593	-263.7308044433594	335.2940368652344	422.1728210449218	-230.8109130859376	263.5140686035156	418.5390624999999	-277.4262084960938	276.7767333984375	406.1346130371093	-313.8435058593751	64.69232940673827	292.4922485351562	-100.733497619629	45.21142578124999	308.2496643066406	-157.4110107421876	38.11149597167968	407.7241821289062	-121.5771484375001	1342.898315429688	276.5296630859375	-107.0945358276368	1199.052001953125	275.4066162109375	-214.0897369384767	1407.046997070312	102.7356414794921	-220.4693298339845	1253.136474609375	2.131795644760091	-233.097381591797	1191.901977539062	-19.23921203613286	-188.2173614501954	1196.130615234375	3.675975561141933	-188.6974792480469	991.4603271484375	-48.81616210937504	-217.346176147461	919.8980102539062	-31.71254158020023	-172.3394470214844	932.1297607421875	-49.47999191284183	-135.5697174072266	834.58984375	-54.06513977050784	-90.43852996826178	843.7653198242188	9.719447135925277	-206.6990356445314	1402.100341796875	444.9287414550781	-223.8281707763674	1255.255615234375	548.363037109375	-199.5662536621096	1193.74853515625	553.772705078125	-248.0733032226564	1198.076904296875	571.0501098632812	-204.4266510009767	978.3966064453125	600.2745971679688	-140.7265472412111	932.2366943359375	616.4207763671875	-186.5526580810549	918.2680053710938	600.4446411132812	-138.0465393066408	841.59912109375	605.2962036132812	-106.7948150634767	832.7349853515625	529.9647216796875	
58	0.285	-56.05890274047866	1604.91015625	287.9320068359375	-106.671844482422	1630.872924804688	351.7943420410156	-99.04683685302749	1627.886474609375	214.4778442382812	-283.9509582519533	1446.151123046875	276.8780212402343	-344.0821838378907	1276.89697265625	275.6827697753906	-351.9937744140626	1236.197021484375	255.2148284912109	-355.6905822753907	1229.460815429688	305.1679382324218	-347.242645263672	1172.2890625	271.9214782714843	-322.7703552246095	1106.034301757812	273.8400573730468	-358.9594726562501	1070.1123046875	260.1534118652343	-356.8022766113282	1068.0029296875	310.5559997558593	-361.6351928710939	1007.864196777344	281.7179870605468	-343.0866699218751	958.8640747070312	251.3722381591796	-342.2241516113282	954.869140625	302.7492370605468	-355.8460083007814	897.0733032226562	272.8551330566406	-171.630859375	680.4927978515625	64.05930328369138	-196.5042419433594	611.3456420898438	90.39556121826168	-153.1862182617188	623.6612548828125	69.89192962646482	-197.7220001220703	408.59765625	58.35983276367184	-272.1482238769531	391.2129211425781	80.79760742187494	-232.8245849609375	360.026611328125	73.13330841064449	-396.3573303222657	261.2689514160156	186.0135650634765	-259.6691284179688	88.48600006103514	175.768081665039	-314.5818176269531	101.7841491699219	86.08821105957026	-251.3659210205079	686.3692626953125	446.2600402832031	-191.8379364013673	633.8203125	450.6263122558593	-238.8051910400392	627.445068359375	434.7047424316406	-263.1567077636719	335.9153442382812	421.8754272460937	-230.5713195800782	263.9627685546875	418.6045532226562	-277.0157165527344	277.4450988769531	405.7986755371093	-313.6700134277344	65.28695678710936	292.2526245117187	-100.6543655395508	45.19548416137695	308.2117309570312	-157.3875885009766	38.09426498413085	407.7204895019531	-114.945411682129	1343.23779296875	276.4526062011719	-100.5042419433595	1199.3701171875	275.5311584472656	-207.6605682373048	1407.175415039062	102.6653289794921	-215.168426513672	1253.173095703125	2.062686681747397	-228.2970733642579	1191.972534179688	-19.1244106292725	-183.2158966064454	1196.018310546875	3.431126117706265	-185.7618560791016	991.4297485351562	-49.09438705444339	-215.2124328613282	920.1817016601562	-31.90869331359867	-170.1708374023438	931.8507080078125	-49.98581314086917	-134.7470092773438	833.8751831054688	-55.07228088378908	-89.13572692871099	842.1932983398438	8.499583244323714	-199.7070922851564	1402.807250976562	444.8896484374999	-216.4708251953127	1256.214477539062	548.7191772460938	-192.0643615722658	1194.74951171875	554.1891479492188	-240.5566711425783	1199.023559570312	571.5300903320312	-195.367645263672	979.3255615234375	600.6156005859375	-131.0753784179689	933.8538208007812	616.3350219726562	-176.7857818603517	919.413818359375	600.4713134765625	-127.3525924682619	843.322021484375	604.7916259765625	-96.17322540283219	835.15673828125	529.366943359375	
59	0.29	-49.26635360717788	1605.2451171875	287.4591064453125	-99.83052825927751	1631.304931640625	351.328125	-92.31283569335952	1628.0986328125	214.0011291503906	-277.1644897460939	1446.509521484375	276.9047851562499	-337.3976440429689	1277.29541015625	276.0455932617187	-345.3520507812501	1236.600708007812	255.6197052001953	-349.0234985351564	1229.884155273438	305.5772705078124	-340.6329040527345	1172.693969726562	272.3462524414062	-316.2280273437501	1106.426635742188	274.1993103027343	-352.5850219726564	1070.450317382812	260.3073425292968	-350.4844360351564	1068.271728515625	310.7091979980468	-355.2433471679689	1008.173767089844	281.7821960449218	-336.5765991210939	959.315185546875	251.1798400878906	-335.9513244628907	955.145751953125	302.5494995117187	-349.5130004882814	897.4617919921875	272.4027099609374	-162.0645751953125	681.62353515625	63.87256240844724	-186.8181610107422	612.06640625	89.12911987304685	-143.2005615234375	624.9691162109375	69.58629608154294	-184.885971069336	407.2265319824219	58.83034515380856	-258.9827270507812	388.1033325195312	80.83464813232418	-218.8549194335938	357.8395385742188	73.48783111572261	-380.6357421875001	254.6134338378906	186.0914001464843	-237.78173828125	86.82643127441405	175.6966400146484	-293.1204833984375	98.19324493408202	86.00177764892572	-247.808807373047	687.1458129882812	446.1337280273437	-188.8989257812501	633.9292602539062	450.8973083496093	-235.8297576904298	628.111083984375	434.6361999511718	-262.5130310058594	336.5478820800781	421.6002197265624	-230.2674407958986	264.4264831542969	418.6483154296874	-276.5526428222657	278.126708984375	405.4941711425781	-313.4942626953126	65.90164947509764	292.0305480957031	-100.5853729248047	45.18248748779296	308.1759033203125	-157.365692138672	38.07571411132812	407.7210388183593	-108.3049468994142	1343.504760742188	276.3606872558594	-93.9172286987306	1199.614868164062	275.6397094726562	-201.2111053466798	1407.241333007812	102.5802917480468	-209.8788299560548	1253.159057617188	1.981991291046104	-223.511932373047	1191.995483398438	-19.01080131530766	-178.2159423828126	1195.858032226562	3.158967733383146	-182.8214263916016	991.3678588867188	-49.38581848144535	-213.0563964843751	920.443359375	-32.10385131835942	-167.9937133789063	931.5549926757812	-50.50151443481448	-133.9046783447266	833.1690063476562	-56.07433700561526	-87.82963562011724	840.6378173828125	7.279302120208724	-192.6922302246095	1403.43408203125	444.8338012695312	-209.1097564697268	1257.100463867188	549.058837890625	-184.5767822265627	1195.674194335938	554.5994873046875	-233.0550842285158	1199.908081054688	571.9937744140625	-186.3301086425783	980.1934814453125	600.9385986328125	-121.4570693969728	935.4224243164062	616.2471923828125	-167.0353393554689	920.5089111328125	600.4711303710938	-116.6802520751955	845.0098876953125	604.254638671875	-85.54014587402359	837.5762939453125	528.7550048828125	
60	0.295	-42.47487258911148	1605.526611328125	286.9653015136719	-92.99116516113298	1631.6806640625	350.8432006835938	-85.58321380615249	1628.253662109375	213.5045776367187	-270.3667907714845	1446.811767578125	276.9171142578124	-330.7159118652345	1277.647338867188	276.3702087402343	-338.7138977050782	1236.960083007812	255.9783935546874	-342.3699340820314	1230.257690429688	305.9387207031249	-334.035614013672	1173.052368164062	272.7182312011718	-309.7009887695314	1106.769409179688	274.4968872070312	-346.2044982910157	1070.740112304688	260.3772277832031	-344.178192138672	1068.492065429688	310.7789611816406	-348.8670349121095	1008.436218261719	281.7618713378906	-330.0902404785157	959.68359375	250.9665527343749	-329.6962890625001	955.3761596679688	302.3307800292968	-343.1645507812501	897.7765502929688	271.9713439941406	-152.636962890625	682.7213134765625	63.68049240112302	-177.2323913574219	612.7382202148438	87.8740310668945	-133.340087890625	626.2254638671875	69.30522155761716	-172.126953125	405.7457580566406	59.32349777221677	-245.8174591064454	384.8192138671875	80.93853759765621	-204.9005432128907	355.5299987792969	73.84694671630855	-364.6565246582032	247.722900390625	186.1118774414062	-215.8020629882813	85.1672897338867	175.5918731689453	-271.4955749511719	94.57397460937499	85.87313079833979	-244.2162322998048	687.9133911132812	446.0215454101562	-185.9279785156251	634.0443725585938	451.1788330078124	-232.8180999755861	628.7748413085938	434.5933837890624	-261.7960510253907	337.1882019042969	421.3466186523437	-229.8946228027345	264.9018249511719	418.6697692871093	-276.0331115722657	278.8180847167969	405.2210083007812	-313.3137512207032	66.53280639648436	291.8264465332031	-100.529037475586	45.17105865478515	308.1429443359375	-157.3455352783204	38.0563735961914	407.7255249023437	-101.655128479004	1343.699462890625	276.2525329589844	-87.33364105224622	1199.7861328125	275.7319641113281	-194.7425079345704	1407.2451171875	102.4799728393554	-204.597137451172	1253.094360351562	1.890459060668908	-218.7355194091798	1191.970825195312	-18.89946746826176	-173.216278076172	1195.6494140625	2.862936973571745	-179.8722534179688	991.2743530273438	-49.68833160400394	-210.8747100830079	920.6822509765625	-32.29853057861332	-165.8048706054688	931.2433471679688	-51.02557754516604	-133.0400543212891	832.4695434570312	-57.06975936889651	-86.51386260986334	839.098388671875	6.057582855224593	-185.6561126708986	1403.979248046875	444.7603759765624	-201.7441253662111	1257.910400390625	549.380615234375	-177.1005706787111	1196.520751953125	555.001708984375	-225.5652770996096	1200.726196289062	572.4400634765625	-177.3097381591799	980.9995727539062	601.2440185546875	-111.8674850463869	936.9398803710938	616.1549682617188	-157.2996826171877	921.552734375	600.4459228515625	-106.0310211181642	846.659423828125	603.6857299804688	-74.89976501464859	839.9901733398438	528.1290893554688	
